<?xml version="1.0" encoding="UTF-8"?>
<svg version="1.1" xmlns="http://www.w3.org/2000/svg" width="800" height="612">
<path d="M0 0 C6.57661649 -0.19102206 12.78486864 0.54507861 19.28125 1.53125 C20.33534058 1.68662231 21.38943115 1.84199463 22.47546387 2.0020752 C25.81780186 2.49599173 29.15888708 2.99787021 32.5 3.5 C34.77596339 3.83776747 37.05200436 4.17501258 39.328125 4.51171875 C44.88632884 5.33510276 50.44352788 6.16501416 56 7 C54.58098338 10.22745524 52.87144235 12.37258107 50.37646484 14.85058594 C49.63584808 15.59105164 48.89523132 16.33151733 48.13217163 17.09442139 C47.33316437 17.88310608 46.5341571 18.67179077 45.7109375 19.484375 C44.89251373 20.29996887 44.07408997 21.11556274 43.23086548 21.95587158 C40.61690027 24.55864562 37.99606495 27.15437762 35.375 29.75 C33.60110546 31.5138634 31.82766234 33.2781809 30.0546875 35.04296875 C25.70834858 39.36726136 21.35634919 43.6857933 17 48 C16.10493183 45.03013448 15.96684831 42.74360212 16.33984375 39.671875 C16.43330078 38.87265625 16.52675781 38.0734375 16.62304688 37.25 C16.77870117 36.0125 16.77870117 36.0125 16.9375 34.75 C17.03740234 33.90953125 17.13730469 33.0690625 17.24023438 32.203125 C17.48704258 30.13463723 17.74266284 28.06720428 18 26 C-28.62265358 42.07432164 -74.85285607 59.10694212 -120 79 C-120.62952576 79.27716858 -121.25905151 79.55433716 -121.90765381 79.83990479 C-152.2334134 93.21261997 -182.16584931 107.63299819 -211 124 C-211.70930664 124.40025391 -212.41861328 124.80050781 -213.14941406 125.21289062 C-245.72107109 143.68088234 -276.91143531 165.21597233 -305 190 C-305.70511719 190.59425781 -306.41023438 191.18851563 -307.13671875 191.80078125 C-316.80140353 199.9661229 -325.97156039 209.22399056 -334 219 C-334.40863281 219.4842041 -334.81726563 219.9684082 -335.23828125 220.46728516 C-354.18987811 242.96229678 -370.3597357 269.05783794 -377 298 C-376.54898926 297.67427002 -376.09797852 297.34854004 -375.63330078 297.01293945 C-374.99376465 296.55105225 -374.35422852 296.08916504 -373.6953125 295.61328125 C-372.97722412 295.09451416 -372.25913574 294.57574707 -371.51928711 294.04125977 C-369.89045592 292.86518618 -368.26103891 291.68992363 -366.63110352 290.51538086 C-362.72625111 287.69999458 -358.8265856 284.87938507 -354.95703125 282.015625 C-341.59889636 272.17330782 -327.74391319 263.07525539 -313.91142273 253.91983032 C-309.91127771 251.27131584 -305.92055895 248.60970577 -301.94140625 245.9296875 C-290.14111569 237.9839424 -278.18467389 230.34380042 -266 223 C-265.06849121 222.43812988 -264.13698242 221.87625977 -263.17724609 221.29736328 C-189.59510109 177.13811086 -189.59510109 177.13811086 -161.93408203 183.47314453 C-134.41680589 191.41647799 -111.6418451 214.1347258 -97.93041992 238.54272461 C-80.70126169 269.99748238 -71.61637332 303.89432116 -81.60107422 339.12060547 C-86.95208193 356.56139989 -96.91943127 372.64438632 -108 387 C-108.69222656 387.90363281 -109.38445313 388.80726563 -110.09765625 389.73828125 C-122.99946434 406.01626342 -138.10650058 421.61600049 -154 435 C-154.98871094 435.86625 -155.97742188 436.7325 -156.99609375 437.625 C-165.34434171 444.92455848 -173.99908679 451.73544655 -182.86523438 458.39306641 C-184.95372361 459.96516569 -187.03256084 461.54924023 -189.109375 463.13671875 C-219.27568831 486.11953255 -256.20343696 510.02229637 -295.89453125 505.68359375 C-312.64264665 503.02402178 -325.92454211 495.76793349 -338 484 C-338.68707031 483.36320312 -339.37414062 482.72640625 -340.08203125 482.0703125 C-366.10153368 457.33382301 -376.29284871 420.16696753 -384.8125 386.5 C-385.0075412 385.73599884 -385.2025824 384.97199768 -385.40353394 384.18484497 C-390.74319959 363.16158919 -392.2096213 342.63757632 -392 321 C-403.84937954 329.6609758 -415.58662671 338.45624847 -427.24609375 347.37109375 C-430.98191886 350.22703856 -434.73271885 353.06070696 -438.5 355.875 C-444.16161749 360.10715946 -449.76355933 364.4148324 -455.35888672 368.73388672 C-458.07022129 370.82567207 -460.78528452 372.91260557 -463.5 375 C-464.58335149 375.83330973 -465.66668482 376.66664307 -466.75 377.5 C-473.25 382.5 -473.25 382.5 -474.87475586 383.74975586 C-475.9589756 384.58380863 -477.04312264 385.41795589 -478.12719727 386.25219727 C-480.82138305 388.32530105 -483.51677797 390.39679151 -486.21484375 392.46484375 C-492.31341745 397.14223776 -498.3803472 401.85690926 -504.41772461 406.61303711 C-509.26345223 410.42812621 -514.12949102 414.21661696 -519 418 C-530.09501214 426.62478868 -541.15121727 435.27924924 -552.03955078 444.16430664 C-556.88591589 448.1128718 -561.7839035 451.98880137 -566.7109375 455.8359375 C-571.87601807 459.87919062 -576.95999243 464.01847247 -582.04125977 468.16625977 C-586.30311027 471.63893578 -590.60134579 475.05821709 -594.9375 478.4375 C-601.03365059 483.19232178 -607.00476228 488.09030165 -612.96240234 493.01708984 C-617.39973701 496.68605487 -621.86458626 500.31458213 -626.37109375 503.8984375 C-631.88764884 508.30840279 -637.354699 512.77998806 -642.83300781 517.23730469 C-646.55397439 520.26404857 -650.27711018 523.28812229 -654 526.3125 C-655.35417619 527.41274869 -656.70834376 528.513008 -658.0625 529.61328125 C-659.031875 530.40089844 -660.00125 531.18851563 -661 532 C-665.875 527.375 -665.875 527.375 -667 524 C-666.15179687 523.34515625 -665.30359375 522.6903125 -664.4296875 522.015625 C-658.16099549 517.1480001 -651.99285239 512.20469995 -646 507 C-640.84611112 502.52560214 -635.57238373 498.25655427 -630.1796875 494.07421875 C-626.20128519 490.9769391 -622.32898541 487.7797457 -618.5 484.5 C-613.58138583 480.29117373 -608.55756844 476.24916375 -603.45019531 472.2722168 C-598.8372267 468.67478978 -594.2844455 465.00831802 -589.75 461.3125 C-589.06776367 460.75651123 -588.38552734 460.20052246 -587.68261719 459.62768555 C-587.02036133 459.08797119 -586.35810547 458.54825684 -585.67578125 457.9921875 C-582.00432866 455.00021928 -578.31316591 452.03387803 -574.609375 449.08203125 C-572.5747025 447.45855753 -570.54400344 445.83052741 -568.515625 444.19921875 C-562.00838393 438.97054624 -555.47218462 433.7894113 -548.84228516 428.71704102 C-543.10690413 424.32668297 -537.43457893 419.8573834 -531.76171875 415.38671875 C-530.02010212 414.01582318 -528.27612115 412.64800009 -526.53125 411.28125 C-520.47249373 406.53360244 -514.43932548 401.75696124 -508.4375 396.9375 C-503.3704901 392.87183703 -498.2674317 388.86318042 -493.10717773 384.91625977 C-489.30471196 382.00748473 -485.52247313 379.07397427 -481.74804688 376.12890625 C-471.78613717 368.35671258 -461.74728307 360.68902189 -451.68652344 353.04541016 C-448.99758306 350.99815984 -446.31440432 348.94358271 -443.6328125 346.88671875 C-434.74236231 340.07382639 -425.81253898 333.33784674 -416.70239258 326.82080078 C-412.68227376 323.94433257 -408.6896977 321.03669653 -404.7265625 318.08203125 C-403.85402832 317.43250488 -402.98149414 316.78297852 -402.08251953 316.11376953 C-400.39048747 314.85170365 -398.70124689 313.58588462 -397.01513672 312.31591797 C-395.87842529 311.46924561 -395.87842529 311.46924561 -394.71875 310.60546875 C-393.71231445 309.84979614 -393.71231445 309.84979614 -392.68554688 309.07885742 C-391 308 -391 308 -389 308 C-388.8865625 306.70707031 -388.773125 305.41414063 -388.65625 304.08203125 C-388.09674614 299.10574954 -386.95308485 294.4717542 -385.5 289.6875 C-385.10905151 288.39924316 -385.10905151 288.39924316 -384.71020508 287.08496094 C-378.28273972 266.72607095 -368.03830328 247.7059372 -355.24853516 230.66601562 C-354.03137444 229.04186531 -352.8333392 227.40494023 -351.63671875 225.765625 C-345.04058603 216.91320466 -337.68830689 208.91164188 -330 201 C-329.27119629 200.24928223 -328.54239258 199.49856445 -327.79150391 198.72509766 C-319.96235943 190.69678055 -312.19161644 182.75603223 -303.33984375 175.84765625 C-301.11774435 174.09297676 -299.06848523 172.24389264 -297 170.3125 C-275.63136711 151.2560054 -249.69590482 135.39421546 -225 121 C-224.19272461 120.52643066 -223.38544922 120.05286133 -222.55371094 119.56494141 C-152.78365834 78.81975626 -77.49930393 49.18915183 -1.63320923 22.02050781 C3.91796923 20.03218184 9.46121482 18.02256519 15 16 C14.54560547 15.55084229 14.09121094 15.10168457 13.62304688 14.63891602 C11.57945761 12.61602464 9.53968777 10.58932487 7.5 8.5625 C6.42685547 7.50192383 6.42685547 7.50192383 5.33203125 6.41992188 C4.65527344 5.74638672 3.97851562 5.07285156 3.28125 4.37890625 C2.65283203 3.7557251 2.02441406 3.13254395 1.37695312 2.49047852 C0 1 0 1 0 0 Z M-262 231 C-263.01513672 231.61987793 -264.03027344 232.23975586 -265.07617188 232.87841797 C-279.62033486 241.77571741 -293.84613989 251.12443516 -307.98945618 260.64004517 C-311.80662094 263.20602756 -315.63921481 265.74748093 -319.48046875 268.27734375 C-329.61140925 274.9580114 -339.55766185 281.74999256 -349.1953125 289.125 C-352.60783776 291.72774321 -356.08667895 294.22488771 -359.59765625 296.69287109 C-361.05845641 297.71987544 -362.51433248 298.75392464 -363.96484375 299.79541016 C-367.07066213 302.01519951 -370.09516501 304.05243786 -373.4453125 305.8984375 C-378.11086871 308.59057307 -380.49994811 310.40597793 -382.14453125 315.6484375 C-382.9582362 320.42003433 -383.01937604 325.17008162 -383 330 C-383.00418945 330.93005859 -383.00837891 331.86011719 -383.01269531 332.81835938 C-382.98803115 347.54779791 -381.15119827 361.63634139 -378 376 C-377.78714355 376.99112793 -377.57428711 377.98225586 -377.35498047 379.00341797 C-373.93918984 394.70611802 -369.43375498 409.88147668 -364 425 C-363.74250977 425.72896484 -363.48501953 426.45792969 -363.21972656 427.20898438 C-354.24660659 452.34356735 -338.24297654 478.37939162 -314 491 C-293.39851554 500.4940576 -272.13093033 497.24785145 -251.5625 489.75 C-206.78659955 471.81763692 -160.13761735 434.89524645 -128.91796875 398.24609375 C-127.50641913 396.59305703 -126.06728318 394.96347836 -124.61328125 393.34765625 C-102.38794766 368.35503042 -84.17159065 336.44472306 -85.82519531 302.08740234 C-88.33502487 272.11667224 -103.35029156 241.32089786 -123 219 C-123.80630859 218.06800781 -123.80630859 218.06800781 -124.62890625 217.1171875 C-136.06431276 204.79331582 -153.55455453 194.57996092 -170 191 C-202.13759375 191 -235.62678343 214.79896669 -262 231 Z " fill="lightgray" transform="translate(710,38)"/>
</svg>
