<?xml version="1.0" encoding="UTF-8"?>
<svg version="1.1" xmlns="http://www.w3.org/2000/svg" width="804" height="604">
<path d="M0 0 C-0.60711342 3.65206469 -1.62146165 6.68546865 -3.1875 10.03515625 C-3.63488525 11.00050293 -4.08227051 11.96584961 -4.54321289 12.96044922 C-5.02395264 13.98412598 -5.50469238 15.00780273 -6 16.0625 C-6.99948371 18.21187436 -7.9981681 20.36162057 -8.99609375 22.51171875 C-9.49866699 23.59243652 -10.00124023 24.6731543 -10.51904297 25.78662109 C-11.9232257 28.8334152 -13.29903953 31.8907906 -14.66015625 34.95703125 C-15.06685547 35.87282959 -15.47355469 36.78862793 -15.89257812 37.73217773 C-16.6589098 39.46330051 -17.42205334 41.19583895 -18.18164062 42.92993164 C-18.69694336 44.08996704 -18.69694336 44.08996704 -19.22265625 45.2734375 C-19.51922119 45.94810059 -19.81578613 46.62276367 -20.12133789 47.31787109 C-21 49 -21 49 -23 51 C-25.42080258 44.0834212 -27.29977612 37.12647031 -29 30 C-29.82242188 30.70125 -30.64484375 31.4025 -31.4921875 32.125 C-37.44826099 37.1915184 -43.43576523 42.19844357 -49.5625 47.05859375 C-52.10112942 49.08054699 -54.6153333 51.12972269 -57.125 53.1875 C-67.23091646 61.46893507 -77.3408873 69.73705444 -87.64648438 77.76953125 C-92.27073317 81.38986552 -96.79524992 85.12244481 -101.3125 88.875 C-107.65296088 94.13647772 -114.11540225 99.19841398 -120.68579102 104.16870117 C-125.62125866 107.91345805 -130.45715167 111.76214857 -135.25 115.6875 C-141.48220105 120.79007217 -147.80485702 125.73972415 -154.20849609 130.62646484 C-157.71596972 133.31562356 -161.20032605 136.03460517 -164.6875 138.75 C-165.44554932 139.33998779 -166.20359863 139.92997559 -166.98461914 140.5378418 C-169.3233196 142.35825296 -171.6617083 144.17906383 -174 146 C-184.31091649 154.02958877 -194.63356406 162.0421968 -205 170 C-206.45986328 171.12535156 -206.45986328 171.12535156 -207.94921875 172.2734375 C-211.29617271 174.85329189 -214.64674506 177.42834325 -218 180 C-218.76344727 180.58555664 -219.52689453 181.17111328 -220.31347656 181.77441406 C-230.52320166 189.59776009 -240.77029338 197.36185081 -251.14868164 204.96044922 C-255.01268998 207.7908077 -258.85893798 210.64014187 -262.671875 213.5390625 C-263.41203857 214.10077148 -264.15220215 214.66248047 -264.91479492 215.24121094 C-266.31388362 216.30551713 -267.71004037 217.37369209 -269.1027832 218.44628906 C-273.77939352 222 -273.77939352 222 -276 222 C-276.07476562 222.59683594 -276.14953125 223.19367188 -276.2265625 223.80859375 C-277.61564128 232.97379003 -280.70201599 241.38216256 -284 250 C-284.66322266 251.74990234 -284.66322266 251.74990234 -285.33984375 253.53515625 C-297.34835953 283.29539102 -318.80610317 307.9946405 -341.23803711 330.42333984 C-342.93699347 332.12449282 -344.62775376 333.83352153 -346.31835938 335.54296875 C-352.56899778 341.82589857 -358.9465291 347.61072573 -366 353 C-367.21227319 353.97821037 -368.42095315 354.96090049 -369.625 355.94921875 C-395.30510886 376.84412084 -423.28565072 394.5967614 -452 411 C-453.29269806 411.7398111 -453.29269806 411.7398111 -454.61151123 412.49456787 C-470.50620751 421.56507744 -486.61903264 430.09316055 -503 438.25 C-504.74348221 439.12041931 -504.74348221 439.12041931 -506.52218628 440.00842285 C-528.04246805 450.7408383 -549.80504098 460.74698566 -572 470 C-572.77804993 470.32490417 -573.55609985 470.64980835 -574.35772705 470.98455811 C-585.85653706 475.77923841 -597.40799857 480.4355661 -609 485 C-609.78334717 485.30852905 -610.56669434 485.61705811 -611.3737793 485.93493652 C-634.90752565 495.19052102 -658.59783348 503.97527782 -682.44482422 512.38964844 C-686.17686129 513.70681459 -689.90377946 515.03780923 -693.6293335 516.3731842 C-696.34641775 517.34466145 -699.06675592 518.30672456 -701.78826904 519.26571655 C-703.63541675 519.91907746 -705.4791442 520.58208281 -707.32275391 521.24536133 C-708.4163623 521.62716553 -709.5099707 522.00896973 -710.63671875 522.40234375 C-711.58248779 522.73741943 -712.52825684 523.07249512 -713.50268555 523.41772461 C-716.1233025 524.02874929 -717.49774633 523.90160394 -720 523 C-720.66 520.69 -721.32 518.38 -722 516 C-713.1208103 512.23046389 -703.98934519 509.17471274 -694.87545776 506.03359985 C-647.22147444 489.58231259 -600.00209547 471.66298041 -554 451 C-552.95924316 450.53335937 -551.91848633 450.06671875 -550.84619141 449.5859375 C-535.43988685 442.65370557 -520.18231153 435.40875185 -505 428 C-503.85950195 427.4440918 -502.71900391 426.88818359 -501.54394531 426.31542969 C-485.37831823 418.40896032 -469.51752645 410.11988641 -454 401 C-453.41696106 400.65757263 -452.83392212 400.31514526 -452.23321533 399.96234131 C-424.49919482 383.65868555 -398.13424247 366.1262919 -373 346 C-371.64261719 344.93458984 -371.64261719 344.93458984 -370.2578125 343.84765625 C-361.72702448 337.05087114 -353.85404454 329.55674894 -346 322 C-345.38737305 321.4107373 -344.77474609 320.82147461 -344.14355469 320.21435547 C-337.21474553 313.5121896 -330.83122169 306.69721263 -325 299 C-324.21109375 298.00484375 -323.4221875 297.0096875 -322.609375 295.984375 C-307.37552148 276.73076311 -295.63381029 255.36087317 -288 232 C-288.46148437 232.33620361 -288.92296875 232.67240723 -289.3984375 233.01879883 C-298.79981538 239.85964827 -308.24609158 246.61635598 -317.85229492 253.16674805 C-320.43768593 254.93066694 -323.01908761 256.70003518 -325.59448242 258.47851562 C-457.95044476 349.87154011 -457.95044476 349.87154011 -500 345 C-523.6259781 339.88310062 -545.83773811 320.32619858 -559.20703125 300.828125 C-578.3449172 270.64113278 -592.49626094 234.40487626 -584.82958984 198.37426758 C-579.94226052 177.14608109 -569.24236407 158.15636331 -556 141 C-555.30777344 140.09636719 -554.61554688 139.19273437 -553.90234375 138.26171875 C-541.00053566 121.98373658 -525.89349942 106.38399951 -510 93 C-509.01128906 92.13375 -508.02257812 91.2675 -507.00390625 90.375 C-498.65565829 83.07544152 -490.00091321 76.26455345 -481.13476562 69.60693359 C-479.04627639 68.03483431 -476.96743916 66.45075977 -474.890625 64.86328125 C-444.72431169 41.88046745 -407.79656304 17.97770363 -368.10546875 22.31640625 C-351.35735335 24.97597822 -338.07545789 32.23206651 -326 44 C-324.96939453 44.95519531 -324.96939453 44.95519531 -323.91796875 45.9296875 C-297.89846632 70.66617699 -287.70715129 107.83303247 -279.1875 141.5 C-278.9924588 142.26400116 -278.7974176 143.02800232 -278.59646606 143.81515503 C-274.49749298 159.95357364 -272.69838205 175.23625572 -272.875 191.875 C-272.8850617 193.54556748 -272.89418185 195.21614091 -272.90234375 196.88671875 C-272.92407742 200.92462978 -272.95842643 204.96224652 -273 209 C-272.52804199 208.6282666 -272.05608398 208.2565332 -271.56982422 207.87353516 C-255.70738269 195.40112838 -255.70738269 195.40112838 -248 190 C-241.77930658 185.63498337 -235.79285817 180.99980775 -229.8125 176.3125 C-224.91880618 172.4804889 -219.98553366 168.71161187 -215 165 C-207.67212553 159.53911742 -200.45710034 153.94029457 -193.25390625 148.31640625 C-189.59971511 145.46357996 -185.9296033 142.63243069 -182.25 139.8125 C-176.05116939 135.05254475 -169.90461823 130.22838395 -163.76611328 125.39111328 C-161.42843984 123.54979959 -159.08849237 121.71139022 -156.74829102 119.87329102 C-155.58060701 118.9560696 -154.41312723 118.03858813 -153.24584961 117.12084961 C-150.35719093 114.84989658 -147.46629465 112.58192092 -144.5703125 110.3203125 C-137.6380401 104.90053589 -130.7789578 99.39985849 -123.96142578 93.83642578 C-119.11467162 89.88769507 -114.2164174 86.0114492 -109.2890625 82.1640625 C-104.12398193 78.12080938 -99.04000757 73.98152753 -93.95874023 69.83374023 C-89.69688768 66.36106255 -85.39858841 62.94186918 -81.0625 59.5625 C-73.56495524 53.71249457 -66.24488261 47.65159984 -58.91992188 41.58789062 C-56.30655372 39.42647831 -53.68595702 37.27415971 -51.0625 35.125 C-50.22074219 34.43535156 -49.37898437 33.74570313 -48.51171875 33.03515625 C-45.00496061 30.19375502 -41.45593605 27.40644849 -37.8984375 24.62890625 C-35.90361433 23.1302192 -35.90361433 23.1302192 -35 21 C-35.66386719 20.90847656 -36.32773437 20.81695312 -37.01171875 20.72265625 C-40.88340045 19.78636721 -44.23739449 18.16518257 -47.8125 16.4375 C-48.50537109 16.10814453 -49.19824219 15.77878906 -49.91210938 15.43945312 C-51.61044948 14.63127749 -53.30555769 13.81631623 -55 13 C-52.69710952 10.69710952 -51.56997381 10.47920629 -48.44604492 9.76318359 C-47.50133835 9.54310638 -46.55663177 9.32302917 -45.58329773 9.09628296 C-44.55936417 8.86599396 -43.5354306 8.63570496 -42.48046875 8.3984375 C-41.42974686 8.1571109 -40.37902496 7.9157843 -39.29646301 7.66714478 C-37.0704369 7.15770001 -34.8435764 6.65188963 -32.6159668 6.14941406 C-29.2098081 5.3800389 -25.80695842 4.59717983 -22.40429688 3.8125 C-20.24237231 3.31950135 -18.08026849 2.827288 -15.91796875 2.3359375 C-14.39117744 1.9844313 -14.39117744 1.9844313 -12.83354187 1.62582397 C-11.40229729 1.30516464 -11.40229729 1.30516464 -9.94213867 0.97802734 C-8.68876961 0.69395523 -8.68876961 0.69395523 -7.41007996 0.40414429 C-4.89660267 -0.01733861 -2.54375825 -0.07096454 0 0 Z M-530 124 C-531.7323541 125.88877433 -533.42006026 127.80289683 -535.08203125 129.75390625 C-536.49358087 131.40694297 -537.93271682 133.03652164 -539.38671875 134.65234375 C-561.61205234 159.64496958 -579.82840935 191.55527694 -578.17480469 225.91259766 C-575.66497513 255.88332776 -560.64970844 286.67910214 -541 309 C-540.46246094 309.62132812 -539.92492187 310.24265625 -539.37109375 310.8828125 C-528.23900018 322.87980557 -507.89753164 336.46869077 -491.20703125 337.15625 C-461.15142883 336.71211272 -428.6698422 313.87885136 -404 299 C-402.97712891 298.38672852 -401.95425781 297.77345703 -400.90039062 297.14160156 C-382.88798683 286.31732526 -365.39750328 274.77685303 -348 263 C-347.14631836 262.4234668 -346.29263672 261.84693359 -345.41308594 261.25292969 C-337.16524095 255.67382335 -329.06346716 249.90966656 -321.00683594 244.05834961 C-313.63853746 238.71419587 -306.1846808 233.49556687 -298.71875 228.2890625 C-297.57212891 227.46970215 -297.57212891 227.46970215 -296.40234375 226.63378906 C-294 225 -294 225 -291.25390625 223.45214844 C-286.07339474 220.39064439 -286.07339474 220.39064439 -282.94091797 215.4296875 C-282.34840937 212.25542001 -282.11462948 209.22733247 -282 206 C-281.9371582 204.80922852 -281.87431641 203.61845703 -281.80957031 202.39160156 C-281.65890757 198.46729218 -281.61344231 194.55140535 -281.625 190.625 C-281.62554382 189.92446503 -281.62608765 189.22393005 -281.62664795 188.50216675 C-281.67114009 175.95912009 -283.12308512 164.20608864 -286 152 C-286.44176575 149.98083157 -286.88180513 147.96128482 -287.3203125 145.94140625 C-290.58666411 131.28834805 -294.92444079 117.12190291 -300 103 C-300.25749023 102.27103516 -300.51498047 101.54207031 -300.78027344 100.79101562 C-309.75339341 75.65643265 -325.75702346 49.62060838 -350 37 C-411.73987042 8.54758984 -491.22723913 83.47479796 -530 124 Z " fill="#656565" transform="translate(766,38)"/>
</svg>
